<svg width="28" height="29" viewBox="0 0 28 29" fill="none" xmlns="http://www.w3.org/2000/svg">
<path d="M14.2539 0.5C6.66281 0.5 0.508375 6.60631 0.508375 14.1395C0.508375 16.7164 1.22913 19.1264 2.48081 21.1824L0 28.5L7.61025 26.0824C9.5795 27.1627 11.8443 27.779 14.2539 27.779C21.8459 27.779 28 21.6718 28 14.1395C28 6.60631 21.8459 0.5 14.2539 0.5ZM21.089 19.3194C20.7656 20.1211 19.3031 20.8527 18.6578 20.8864C18.0132 20.9206 17.9948 21.386 14.4803 19.8592C10.9662 18.3321 8.85206 14.619 8.68538 14.3799C8.51856 14.1416 7.32412 12.4394 7.38856 10.7264C7.45344 9.01313 8.3915 8.20481 8.72631 7.86862C9.06075 7.53194 9.44419 7.47162 9.67831 7.46781C9.95506 7.46331 10.1343 7.45956 10.3391 7.46712C10.5437 7.47487 10.8511 7.42431 11.1173 8.13206C11.3833 8.83975 12.0199 10.5791 12.1014 10.7564C12.1827 10.9338 12.2331 11.1392 12.1077 11.3671C11.982 11.5954 11.9176 11.738 11.7352 11.9347C11.5518 12.1315 11.3493 12.3749 11.1857 12.5253C11.0032 12.6919 10.8126 12.8736 11.0044 13.2296C11.1962 13.5854 11.8577 14.7519 12.8656 15.7131C14.1609 16.9488 15.278 17.3587 15.6217 17.5454C15.9664 17.7332 16.1721 17.7123 16.3859 17.4874C16.5986 17.2624 17.3008 16.5033 17.5481 16.1643C17.7953 15.8244 18.0269 15.891 18.3445 16.0187C18.6619 16.147 20.3543 17.0535 20.6991 17.2407C21.0434 17.4275 21.2736 17.5238 21.3559 17.6719C21.4382 17.8207 21.4123 18.5176 21.089 19.3194Z" fill="#BEBEBE"/>
</svg>
