<svg width="52" height="52" viewBox="0 0 52 52" fill="none" xmlns="http://www.w3.org/2000/svg">
<path d="M22.8428 13.665C23.295 13.4842 23.8085 13.5691 24.2451 13.8359C24.683 14.1036 25.012 14.5366 25.1045 14.999L25.1094 15.0215L25.1182 15.043C25.2989 15.4951 25.214 16.0078 24.9473 16.4443C24.713 16.8276 24.3523 17.1277 23.9561 17.2588L23.7842 17.3047L23.7793 17.3057C19.7551 18.1999 17.083 21.7765 17.083 26C17.083 30.9047 21.0953 34.917 26 34.917C30.4599 34.917 34.4545 31.1434 34.9121 26.6992C35.0088 26.2155 35.3032 25.7217 35.6982 25.376C36.0442 25.0733 36.4434 24.9025 36.834 24.9238L37.001 24.9453C37.4847 25.0421 37.9785 25.3364 38.3242 25.7314C38.6702 26.1269 38.8433 26.5921 38.7549 27.0342L38.752 27.0469L38.751 27.0596C38.113 33.6505 32.5852 38.75 26 38.75C18.9881 38.75 13.25 33.0119 13.25 26C13.25 20.0414 17.0777 14.9504 22.8047 13.6777L22.8242 13.6729L22.8428 13.665Z" fill="#0066DB" stroke="#EBF5FF" stroke-width="0.5"/>
<path d="M24.5244 4.57947C25.6824 4.38667 26.6162 5.14866 26.6162 6.28357V6.30408L26.6201 6.32458C26.813 7.48264 26.051 8.41638 24.916 8.41638H24.9072L24.8984 8.41736C15.6696 9.07661 8.41602 16.7673 8.41602 26.0004C8.41621 35.6716 16.3287 43.5834 26 43.5834C35.6711 43.5832 43.5828 35.6715 43.583 26.0004C43.583 25.4072 43.7795 24.9318 44.1055 24.6058C44.4314 24.2799 44.9068 24.0834 45.5 24.0834C46.4617 24.0835 47.416 24.8545 47.416 26.0004C47.4158 37.7787 37.7783 47.4162 26 47.4164C14.2215 47.4164 4.5832 37.7788 4.58301 26.0004C4.58301 14.6504 13.363 5.43935 24.502 4.5824L24.5137 4.58142L24.5244 4.57947Z" fill="#0066DB" stroke="#EBF5FF" stroke-width="0.5"/>
<path d="M38.3408 4.47217C38.7043 3.92693 39.4479 3.73509 40.0039 3.92041L40.042 3.93311H40.083C40.3259 3.93311 40.5943 4.05655 40.8369 4.2749C41.0476 4.46454 41.2205 4.70979 41.3232 4.95654L41.3623 5.06201L42.6621 8.9624L42.7021 9.08057L42.8203 9.12061L46.7207 10.4204C47.002 10.5142 47.2911 10.706 47.5078 10.9468C47.7259 11.1893 47.8495 11.4569 47.8496 11.6997C47.8496 11.9996 47.7993 12.3547 47.6982 12.6831C47.6089 12.9733 47.4855 13.2252 47.3379 13.4019L47.2725 13.4731L47.2705 13.4751L38.8203 22.1421C38.6193 22.3427 38.4278 22.4836 38.2207 22.5757C38.014 22.6675 37.7789 22.7163 37.4834 22.7163H36.8672L33.2207 21.6431L33.0781 21.6021L32.9727 21.7065L27.3398 27.3403C26.9566 27.7235 26.3715 27.9164 26 27.9165C25.6751 27.9165 25.1863 27.7688 24.8125 27.4751L24.6602 27.3403C23.9391 26.6193 23.8935 25.57 24.5244 24.8081L24.6602 24.6597L30.3916 18.9282L30.3594 18.7925L29.4932 15.1089L29.4824 15.0659L29.458 15.0278L29.3994 14.9292C29.1528 14.457 29.2756 13.8318 29.752 13.2915L29.8594 13.1763L29.8623 13.1743L38.3115 4.5083L38.3281 4.4917L38.3408 4.47217ZM33.0801 15.0991L33.1289 15.2456L33.9961 17.8452L34.0352 17.9644L34.1543 18.0034L36.7539 18.8706L36.9004 18.9194L42.4707 13.3491L42.1318 13.2036L40.6152 12.5532L40.6055 12.5493L40.5957 12.5464L40.3887 12.4653C39.9291 12.2572 39.6209 11.9071 39.4531 11.4038L39.4502 11.394L39.4463 11.3853L38.7959 9.86768L38.6504 9.52881L33.0801 15.0991Z" fill="#0066DB" stroke="#EBF5FF" stroke-width="0.5"/>
</svg>
