<svg width="52" height="52" viewBox="0 0 52 52" fill="none" xmlns="http://www.w3.org/2000/svg">
<path d="M6.5 23.8333H13C14.1493 23.8333 15.2515 24.2898 16.0641 25.1025C16.8768 25.9151 17.3333 27.0173 17.3333 28.1666V34.6666C17.3333 35.8159 16.8768 36.9181 16.0641 37.7307C15.2515 38.5434 14.1493 38.9999 13 38.9999H10.8333C9.68406 38.9999 8.58186 38.5434 7.7692 37.7307C6.95655 36.9181 6.5 35.8159 6.5 34.6666V23.8333ZM6.5 23.8333C6.5 21.2725 7.00438 18.7368 7.98435 16.3709C8.96432 14.0051 10.4007 11.8554 12.2114 10.0447C14.0222 8.23393 16.1718 6.79757 18.5377 5.8176C20.9035 4.83763 23.4392 4.33325 26 4.33325C28.5608 4.33325 31.0965 4.83763 33.4623 5.8176C35.8282 6.79757 37.9778 8.23393 39.7886 10.0447C41.5993 11.8554 43.0357 14.0051 44.0157 16.3709C44.9956 18.7368 45.5 21.2725 45.5 23.8333M45.5 23.8333V34.6666M45.5 23.8333H39C37.8507 23.8333 36.7485 24.2898 35.9359 25.1025C35.1232 25.9151 34.6667 27.0173 34.6667 28.1666V34.6666C34.6667 35.8159 35.1232 36.9181 35.9359 37.7307C36.7485 38.5434 37.8507 38.9999 39 38.9999H41.1667C42.3159 38.9999 43.4181 38.5434 44.2308 37.7307C45.0435 36.9181 45.5 35.8159 45.5 34.6666M45.5 34.6666V38.9999C45.5 41.2985 44.5869 43.5029 42.9616 45.1282C41.3363 46.7535 39.1319 47.6666 36.8333 47.6666H26" stroke="#0066DB" stroke-width="4" stroke-linecap="round" stroke-linejoin="round"/>
</svg>
